<!--
// 版权 @2019 凹语言 作者。保留所有权利。
// https://wa-lang.org
-->

<svg xmlns="http://www.w3.org/2000/svg" viewBox="0 0 520 660">

<!-- 外边框 -->
<polyline points="1,1 519,1 519,659 1,659 1,1" style="fill:none;stroke:black;stroke-width:1"/>

<!-- 顶部横条 -->
<rect x="50" y="1" width="420" height="20" style="fill:SteelBlue;stroke:none;"/>

<!-- 系列图书 -->
<text x="190" y="40" fill="black" font-style="italic" font-size="20px">凹语言挖坑系列</text>

<!-- 标题横条 -->
<rect x="50" y="80" width="420" height="150" style="fill:SteelBlue;stroke:none;"/>

<!-- 主标题 -->
<text x="65" y="180" fill="white" font-size="45px" font-weight="bold">凹语言Playground</text>

<!-- 副标题 -->
<text x="90" y="260" fill="black" font-style="italic" font-size="30px">Wa Playground Manual</text>

<!-- 出版社 -->
<text x="50" y="620" fill="black" font-style="italic" font-size="20px">开源出版社</text>

<!-- 作者 -->
<text x="320" y="620" fill="black" font-style="italic" font-size="20px">凹语言开发组 著</text>

<!-- 中间图像 -->
<g transform="translate(140,280) scale(0.6,0.6)"
fill="#000000" stroke="none">

  <path fill-rule="evenodd" clip-rule="evenodd" d="M50 70C50 58.9543 58.9543 50 70 50H130C141.046 50 150 58.9543 150 70V74V130V150H250V130V74V70C250 58.9543 258.954 50 270 50H330C341.046 50 350 58.9543 350 70V94V130V330C350 341.046 341.046 350 330 350H70C58.9543 350 50 341.046 50 330V130V94V70Z" fill="LightSeaGreen" />

  <circle cx="100" cy="100" r="5" stroke="black" stroke-width="0" fill="white">
    <animate attributeName="r" values="0;5;5;0" dur="1s" repeatCount="1" />
  </circle>

  <circle cx="300" cy="100" r="5" stroke="black" stroke-width="0" fill="white">
    <animate attributeName="r" values="0;5;5;0" dur="1s" repeatCount="1" />
  </circle>

  <path d="M200 230L234 264L268 230M200 230L166 264L132 230" fill="none" stroke="white" stroke-width="8" stroke-linecap="round" stroke-dasharray="0,0,0,192">
    <animate attributeType="XML" attributeName="stroke-dasharray" values="0,0,0,192;0,96,96,0; 192,0,0,0" keyTimes="0; 0.5;1" fill="freeze" dur="1.5s" repeatCount="1" />
  </path>

</g>

</svg>
